<svg xmlns="http://www.w3.org/2000/svg" viewBox="0 0 32 32" fill="none">
  <rect width="32" height="32" rx="6" fill="#2C3E50"/>
  <path d="M9 20.5c-1.5 0-2.5-1-2.5-2.3 0-1.2.8-2.1 2-2.3 0-2.8 2.2-5 5-5 2.2 0 4 1.4 4.7 3.3.4-.1.8-.2 1.3-.2 2 0 3.5 1.5 3.5 3.3 0 1.8-1.4 3.2-3.2 3.2H9z" stroke="white" stroke-width="1.5" stroke-linecap="round" stroke-linejoin="round" fill="none"/>
  <path d="M7 21.5c1.5 1 4 1.5 6.5.8 2.5-.7 5-.3 7.5.7" stroke="white" stroke-width="1.2" stroke-linecap="round" fill="none" opacity="0.6"/>
</svg>
